<svg width="383" height="340" viewBox="0 0 383 340" fill="none" xmlns="http://www.w3.org/2000/svg">
<path d="M0 339L5.09333 323.376L10.1867 307.751L18.8453 321.781L21.6467 306.794L24.448 291.808L27.2493 276.821L30.0507 261.834L46.8587 279.053L57.5547 261.834L71.3067 267.574L78.9467 245.572L86.5867 223.57L92.1893 236.643L97.792 249.717L110.525 267.574L115.109 250.674L119.693 233.774L134.973 212.091C146.485 201.34 144.361 214.327 152.696 207.291L159.425 199.357L165.637 189.836L173.401 179.521L177.024 174.761L180.648 179.521L185.306 172.38L188.412 166.43L192.528 160.434L197.211 168.016L201.352 179.521L205.039 172.38L210.152 163.256L214.293 156.512L217.398 151.354L222.057 144.561L223.61 141.04L227.751 139.389L229.821 143.711L231.892 136.279L233.444 131.915V123.585L237.068 119.619L239.138 115.65L242.244 109.7L245.35 115.65L247.42 117.422L249.491 119.619L251.561 111.286L253.631 104.542L261.396 101.765L265.537 96.2113L271.23 83.5164L275.889 75.5822L278.995 92.5151L283.136 80.7394L285.724 76.8906H287.264L293.561 64.8444L296.664 48.8833L299.766 32.9222L305.911 14.4883L322.66 31.0444L331.005 46.0667L339.35 61.0889L344.913 46.0667L350.476 31.0444L356.039 16.0222L361.602 1L362.993 16.0222L364.384 31.0444L365.774 46.0667L367.165 61.0889L369.947 83.6222L372.728 106.156L382 83.6222" stroke="#1DCF5B" strokeWidth="2"/>
</svg>
